 <svg
      width="189"
      height="67"
      viewBox="0 0 189 67"
      fill="none"
      xmlns="http://www.w3.org/2000/svg"
    >
      <path
        d="M4.338 64.18C3.478 64.18 2.752 63.99 2.16 63.61C1.568 63.226 1.12 62.696 0.816 62.02C0.512 61.344 0.36 60.564 0.36 59.68C0.36 58.796 0.512 58.016 0.816 57.34C1.12 56.664 1.568 56.136 2.16 55.756C2.752 55.372 3.478 55.18 4.338 55.18C5.202 55.18 5.928 55.372 6.516 55.756C7.108 56.136 7.556 56.664 7.86 57.34C8.168 58.016 8.322 58.796 8.322 59.68C8.322 60.564 8.168 61.344 7.86 62.02C7.556 62.696 7.108 63.226 6.516 63.61C5.928 63.99 5.202 64.18 4.338 64.18ZM4.338 63.334C5.014 63.334 5.578 63.18 6.03 62.872C6.482 62.564 6.82 62.136 7.044 61.588C7.272 61.036 7.386 60.4 7.386 59.68C7.386 58.96 7.272 58.326 7.044 57.778C6.82 57.23 6.482 56.802 6.03 56.494C5.578 56.186 5.014 56.03 4.338 56.026C3.662 56.026 3.1 56.18 2.652 56.488C2.204 56.796 1.866 57.226 1.638 57.778C1.414 58.326 1.3 58.96 1.296 59.68C1.292 60.4 1.402 61.034 1.626 61.582C1.854 62.126 2.194 62.554 2.646 62.866C3.098 63.174 3.662 63.33 4.338 63.334ZM13.0216 64.18C12.1616 64.18 11.4356 63.99 10.8436 63.61C10.2516 63.226 9.80359 62.696 9.49959 62.02C9.19559 61.344 9.04359 60.564 9.04359 59.68C9.04359 58.796 9.19559 58.016 9.49959 57.34C9.80359 56.664 10.2516 56.136 10.8436 55.756C11.4356 55.372 12.1616 55.18 13.0216 55.18C13.8856 55.18 14.6116 55.372 15.1996 55.756C15.7916 56.136 16.2396 56.664 16.5436 57.34C16.8516 58.016 17.0056 58.796 17.0056 59.68C17.0056 60.564 16.8516 61.344 16.5436 62.02C16.2396 62.696 15.7916 63.226 15.1996 63.61C14.6116 63.99 13.8856 64.18 13.0216 64.18ZM13.0216 63.334C13.6976 63.334 14.2616 63.18 14.7136 62.872C15.1656 62.564 15.5036 62.136 15.7276 61.588C15.9556 61.036 16.0696 60.4 16.0696 59.68C16.0696 58.96 15.9556 58.326 15.7276 57.778C15.5036 57.23 15.1656 56.802 14.7136 56.494C14.2616 56.186 13.6976 56.03 13.0216 56.026C12.3456 56.026 11.7836 56.18 11.3356 56.488C10.8876 56.796 10.5496 57.226 10.3216 57.778C10.0976 58.326 9.98359 58.96 9.97959 59.68C9.97559 60.4 10.0856 61.034 10.3096 61.582C10.5376 62.126 10.8776 62.554 11.3296 62.866C11.7816 63.174 12.3456 63.33 13.0216 63.334ZM21.7052 64.18C20.8452 64.18 20.1192 63.99 19.5272 63.61C18.9352 63.226 18.4872 62.696 18.1832 62.02C17.8792 61.344 17.7272 60.564 17.7272 59.68C17.7272 58.796 17.8792 58.016 18.1832 57.34C18.4872 56.664 18.9352 56.136 19.5272 55.756C20.1192 55.372 20.8452 55.18 21.7052 55.18C22.5692 55.18 23.2952 55.372 23.8832 55.756C24.4752 56.136 24.9232 56.664 25.2272 57.34C25.5352 58.016 25.6892 58.796 25.6892 59.68C25.6892 60.564 25.5352 61.344 25.2272 62.02C24.9232 62.696 24.4752 63.226 23.8832 63.61C23.2952 63.99 22.5692 64.18 21.7052 64.18ZM21.7052 63.334C22.3812 63.334 22.9452 63.18 23.3972 62.872C23.8492 62.564 24.1872 62.136 24.4112 61.588C24.6392 61.036 24.7532 60.4 24.7532 59.68C24.7532 58.96 24.6392 58.326 24.4112 57.778C24.1872 57.23 23.8492 56.802 23.3972 56.494C22.9452 56.186 22.3812 56.03 21.7052 56.026C21.0292 56.026 20.4672 56.18 20.0192 56.488C19.5712 56.796 19.2332 57.226 19.0052 57.778C18.7812 58.326 18.6672 58.96 18.6632 59.68C18.6592 60.4 18.7692 61.034 18.9932 61.582C19.2212 62.126 19.5612 62.554 20.0132 62.866C20.4652 63.174 21.0292 63.33 21.7052 63.334ZM33.5471 62.284L31.4711 59.674L33.5471 57.07L34.0811 57.484L32.3351 59.674L34.0811 61.87L33.5471 62.284ZM31.4891 62.284L29.4131 59.674L31.4891 57.07L32.0231 57.484L30.2711 59.674L32.0231 61.87L31.4891 62.284ZM35.715 64V55.36H41.115V56.206H36.597V64H35.715ZM41.2439 64V63.214C41.4639 63.234 41.6459 63.226 41.7899 63.19C41.9339 63.15 42.0499 63.062 42.1379 62.926C42.2299 62.79 42.3099 62.588 42.3779 62.32C42.4459 62.048 42.5139 61.694 42.5819 61.258C42.6579 60.786 42.7219 60.316 42.7739 59.848C42.8299 59.38 42.8779 58.906 42.9179 58.426C42.9619 57.942 42.9979 57.446 43.0259 56.938C43.0539 56.43 43.0799 55.904 43.1039 55.36H48.5579V64H47.6759V56.206H43.9559C43.9279 56.618 43.8999 57.04 43.8719 57.472C43.8479 57.904 43.8159 58.346 43.7759 58.798C43.7399 59.25 43.6939 59.716 43.6379 60.196C43.5859 60.672 43.5199 61.164 43.4399 61.672C43.3759 62.056 43.2999 62.412 43.2119 62.74C43.1279 63.068 43.0079 63.344 42.8519 63.568C42.6999 63.792 42.4939 63.946 42.2339 64.03C41.9779 64.114 41.6479 64.104 41.2439 64ZM53.7325 64.18C52.8725 64.18 52.1465 63.99 51.5545 63.61C50.9625 63.226 50.5145 62.696 50.2105 62.02C49.9065 61.344 49.7545 60.564 49.7545 59.68C49.7545 58.796 49.9065 58.016 50.2105 57.34C50.5145 56.664 50.9625 56.136 51.5545 55.756C52.1465 55.372 52.8725 55.18 53.7325 55.18C54.5965 55.18 55.3225 55.372 55.9105 55.756C56.5025 56.136 56.9505 56.664 57.2545 57.34C57.5625 58.016 57.7165 58.796 57.7165 59.68C57.7165 60.564 57.5625 61.344 57.2545 62.02C56.9505 62.696 56.5025 63.226 55.9105 63.61C55.3225 63.99 54.5965 64.18 53.7325 64.18ZM53.7325 63.334C54.4085 63.334 54.9725 63.18 55.4245 62.872C55.8765 62.564 56.2145 62.136 56.4385 61.588C56.6665 61.036 56.7805 60.4 56.7805 59.68C56.7805 58.96 56.6665 58.326 56.4385 57.778C56.2145 57.23 55.8765 56.802 55.4245 56.494C54.9725 56.186 54.4085 56.03 53.7325 56.026C53.0565 56.026 52.4945 56.18 52.0465 56.488C51.5985 56.796 51.2605 57.226 51.0325 57.778C50.8085 58.326 50.6945 58.96 50.6905 59.68C50.6865 60.4 50.7965 61.034 51.0205 61.582C51.2485 62.126 51.5885 62.554 52.0405 62.866C52.4925 63.174 53.0565 63.33 53.7325 63.334ZM58.9181 64V55.36H64.2521V56.206H59.8001V58.72H62.2541C62.3381 58.72 62.4321 58.724 62.5361 58.732C62.6441 58.736 62.7521 58.746 62.8601 58.762C63.3041 58.822 63.6821 58.974 63.9941 59.218C64.3101 59.462 64.5501 59.77 64.7141 60.142C64.8821 60.514 64.9661 60.92 64.9661 61.36C64.9661 61.8 64.8821 62.206 64.7141 62.578C64.5501 62.95 64.3101 63.258 63.9941 63.502C63.6821 63.746 63.3041 63.898 62.8601 63.958C62.7521 63.97 62.6441 63.98 62.5361 63.988C62.4321 63.996 62.3381 64 62.2541 64H58.9181ZM59.8001 63.154H62.2301C62.3021 63.154 62.3861 63.15 62.4821 63.142C62.5781 63.134 62.6721 63.122 62.7641 63.106C63.2081 63.018 63.5341 62.806 63.7421 62.47C63.9541 62.13 64.0601 61.76 64.0601 61.36C64.0601 60.956 63.9541 60.586 63.7421 60.25C63.5341 59.914 63.2081 59.702 62.7641 59.614C62.6721 59.594 62.5781 59.582 62.4821 59.578C62.3861 59.57 62.3021 59.566 62.2301 59.566H59.8001V63.154ZM65.3259 64L68.3019 55.36H69.4719L72.4479 64H71.5299L68.7039 55.852H69.0519L66.2439 64H65.3259ZM66.6519 61.906V61.078H71.1159V61.906H66.6519ZM73.3767 64V63.214C73.5967 63.234 73.7787 63.226 73.9227 63.19C74.0667 63.15 74.1827 63.062 74.2707 62.926C74.3627 62.79 74.4427 62.588 74.5107 62.32C74.5787 62.048 74.6467 61.694 74.7147 61.258C74.7907 60.786 74.8547 60.316 74.9067 59.848C74.9627 59.38 75.0107 58.906 75.0507 58.426C75.0947 57.942 75.1307 57.446 75.1587 56.938C75.1867 56.43 75.2127 55.904 75.2367 55.36H80.6907V64H79.8087V56.206H76.0887C76.0607 56.618 76.0327 57.04 76.0047 57.472C75.9807 57.904 75.9487 58.346 75.9087 58.798C75.8727 59.25 75.8267 59.716 75.7707 60.196C75.7187 60.672 75.6527 61.164 75.5727 61.672C75.5087 62.056 75.4327 62.412 75.3447 62.74C75.2607 63.068 75.1407 63.344 74.9847 63.568C74.8327 63.792 74.6267 63.946 74.3667 64.03C74.1107 64.114 73.7807 64.104 73.3767 64ZM84.7697 64V55.36H85.5797L88.9757 62.626L92.3537 55.36H93.1757V63.994H92.3357V57.328L89.2577 64H88.6877L85.6157 57.328V64H84.7697ZM94.8595 64V55.36H100.26V56.206H95.7415V59.194H99.5395V60.04H95.7415V63.154H100.26V64H94.8595ZM101.301 65.44V63.154C101.637 63.154 101.907 63.07 102.111 62.902C102.315 62.73 102.471 62.502 102.579 62.218C102.687 61.934 102.769 61.616 102.825 61.264C102.881 60.908 102.929 60.548 102.969 60.184C103.025 59.652 103.069 59.138 103.101 58.642C103.137 58.146 103.167 57.632 103.191 57.1C103.219 56.568 103.251 55.986 103.287 55.354L108.615 55.36V63.154H109.233V65.44H108.357V64H102.183V65.44H101.301ZM102.987 63.154H107.733V56.206L104.109 56.2C104.085 56.688 104.061 57.16 104.037 57.616C104.013 58.072 103.985 58.532 103.953 58.996C103.921 59.46 103.879 59.944 103.827 60.448C103.783 60.908 103.731 61.31 103.671 61.654C103.611 61.998 103.527 62.292 103.419 62.536C103.315 62.78 103.171 62.986 102.987 63.154ZM117.085 64H116.197V56.914L111.439 64H110.551V55.36H111.439V62.44L116.197 55.36H117.085V64ZM118.766 64V55.36H119.648V59.44L123.59 55.36H124.718L120.692 59.53L125.048 64H123.896L119.648 59.68V64H118.766ZM125.291 64L128.267 55.36H129.437L132.413 64H131.495L128.669 55.852H129.017L126.209 64H125.291ZM126.617 61.906V61.078H131.081V61.906H126.617ZM133.342 64V63.214C133.562 63.234 133.744 63.226 133.888 63.19C134.032 63.15 134.148 63.062 134.236 62.926C134.328 62.79 134.408 62.588 134.476 62.32C134.544 62.048 134.612 61.694 134.68 61.258C134.756 60.786 134.82 60.316 134.872 59.848C134.928 59.38 134.976 58.906 135.016 58.426C135.06 57.942 135.096 57.446 135.124 56.938C135.152 56.43 135.178 55.904 135.202 55.36H140.656V64H139.774V56.206H136.054C136.026 56.618 135.998 57.04 135.97 57.472C135.946 57.904 135.914 58.346 135.874 58.798C135.838 59.25 135.792 59.716 135.736 60.196C135.684 60.672 135.618 61.164 135.538 61.672C135.474 62.056 135.398 62.412 135.31 62.74C135.226 63.068 135.106 63.344 134.95 63.568C134.798 63.792 134.592 63.946 134.332 64.03C134.076 64.114 133.746 64.104 133.342 64ZM147.033 64V56.206H144.015V55.36H150.933V56.206H147.915V64H147.033ZM151.895 64V55.36H155.231C155.315 55.36 155.409 55.364 155.513 55.372C155.621 55.376 155.729 55.388 155.837 55.408C156.289 55.476 156.671 55.634 156.983 55.882C157.299 56.126 157.537 56.434 157.697 56.806C157.861 57.178 157.943 57.59 157.943 58.042C157.943 58.49 157.861 58.9 157.697 59.272C157.533 59.644 157.293 59.954 156.977 60.202C156.665 60.446 156.285 60.602 155.837 60.67C155.729 60.686 155.621 60.698 155.513 60.706C155.409 60.714 155.315 60.718 155.231 60.718H152.777V64H151.895ZM152.777 59.878H155.207C155.279 59.878 155.363 59.874 155.459 59.866C155.555 59.858 155.649 59.844 155.741 59.824C156.037 59.76 156.279 59.638 156.467 59.458C156.659 59.278 156.801 59.064 156.893 58.816C156.989 58.568 157.037 58.31 157.037 58.042C157.037 57.774 156.989 57.516 156.893 57.268C156.801 57.016 156.659 56.8 156.467 56.62C156.279 56.44 156.037 56.318 155.741 56.254C155.649 56.234 155.555 56.222 155.459 56.218C155.363 56.21 155.279 56.206 155.207 56.206H152.777V59.878ZM159.137 64V55.36H164.537V56.206H160.019V59.194H163.817V60.04H160.019V63.154H164.537V64H159.137ZM165.981 64V55.36H166.869V62.44L171.627 55.36H172.515V64H171.627V56.914L166.869 64H165.981ZM169.317 54.592C169.033 54.592 168.773 54.522 168.537 54.382C168.305 54.242 168.119 54.056 167.979 53.824C167.839 53.588 167.769 53.328 167.769 53.044H168.501C168.501 53.268 168.581 53.46 168.741 53.62C168.901 53.78 169.093 53.86 169.317 53.86C169.545 53.86 169.737 53.78 169.893 53.62C170.053 53.46 170.133 53.268 170.133 53.044H170.865C170.865 53.328 170.795 53.588 170.655 53.824C170.519 54.056 170.333 54.242 170.097 54.382C169.861 54.522 169.601 54.592 169.317 54.592ZM173.793 65.44V63.154C174.129 63.154 174.399 63.07 174.603 62.902C174.807 62.73 174.963 62.502 175.071 62.218C175.179 61.934 175.261 61.616 175.317 61.264C175.373 60.908 175.421 60.548 175.461 60.184C175.517 59.652 175.561 59.138 175.593 58.642C175.629 58.146 175.659 57.632 175.683 57.1C175.711 56.568 175.743 55.986 175.779 55.354L181.107 55.36V63.154H181.725V65.44H180.849V64H174.675V65.44H173.793ZM175.479 63.154H180.225V56.206L176.601 56.2C176.577 56.688 176.553 57.16 176.529 57.616C176.505 58.072 176.477 58.532 176.445 58.996C176.413 59.46 176.371 59.944 176.319 60.448C176.275 60.908 176.223 61.31 176.163 61.654C176.103 61.998 176.019 62.292 175.911 62.536C175.807 62.78 175.663 62.986 175.479 63.154ZM183.535 62.284L183.001 61.87L184.753 59.674L183.001 57.484L183.535 57.07L185.611 59.674L183.535 62.284ZM185.593 62.284L185.065 61.87L186.811 59.674L185.065 57.484L185.593 57.07L187.669 59.674L185.593 62.284Z"
        fill="#F8F7F3"
      />
      <g clip-path="url(#clip0_6215_12102)">
        <path
          fill-rule="evenodd"
          clip-rule="evenodd"
          d="M4.65753 25.3278C5.66979 25.5568 6.72891 25.4539 7.67815 25.0343C8.62739 24.6146 9.41631 23.9005 9.92816 22.9977L14.9099 14.2832C15.3765 14.3934 15.8241 14.5725 16.238 14.8145C17.3498 15.4648 18.1598 16.528 18.4914 17.7726C18.8231 19.0172 18.6497 20.3425 18.0089 21.4598L9.01011 37.1785C8.69553 37.7305 8.27479 38.2148 7.77215 38.6035C7.2695 38.9921 6.6949 39.2774 6.08146 39.4429C5.46803 39.6084 4.8279 39.6508 4.198 39.5677C3.56809 39.4846 2.96087 39.2776 2.41134 38.9587C1.3009 38.3059 0.492666 37.2415 0.162014 35.9965C-0.168639 34.7516 0.00495876 33.4264 0.64514 32.3087L4.65753 25.3278Z"
          fill="#B7B7DB"
        />
        <path
          d="M17.1545 0.652287C16.605 0.333377 15.9978 0.126404 15.3678 0.0433048C14.7379 -0.0397947 14.0978 0.00262275 13.4844 0.168111C12.8709 0.3336 12.2963 0.618885 11.7937 1.00752C11.2911 1.39615 10.8703 1.88044 10.5557 2.43246L1.54767 18.1744C0.906867 19.2918 0.733418 20.6171 1.06509 21.8617C1.39675 23.1063 2.20668 24.1695 3.31852 24.8198C3.73667 25.0546 4.18743 25.2258 4.65599 25.3278L9.64701 16.5947C10.1589 15.6918 10.9478 14.9777 11.897 14.5581C12.8463 14.1384 13.9054 14.0355 14.9176 14.2646L18.9207 7.27436C19.5521 6.15916 19.7209 4.84074 19.3906 3.60246C19.0603 2.36419 18.2575 1.30491 17.1545 0.652287Z"
          fill="#BDDBC7"
        />
        <path
          d="M26.6445 19.7022C26.6445 16.4556 27.6138 13.7683 29.5525 11.6402C30.4765 10.5969 31.618 9.76872 32.8965 9.21399C34.1751 8.65926 35.5596 8.39142 36.9528 8.42931C38.4295 8.41395 39.8869 8.76628 41.1935 9.45454C42.497 10.1502 43.6154 11.1471 44.4556 12.3625V8.77882H47.783V30.579C47.783 33.7106 46.8339 36.2302 44.9356 38.1378C43.0374 40.0453 40.5147 41.0022 37.3675 41.0084C34.6087 41.0084 32.3439 40.3172 30.573 38.9347C29.724 38.2908 29.0136 37.4822 28.4843 36.5573C27.955 35.6325 27.6177 34.6104 27.4927 33.5522L30.8992 32.8765C31.0955 34.2743 31.8253 35.542 32.9357 36.4135C34.0604 37.302 35.5377 37.7463 37.3675 37.7463C39.4864 37.7463 41.1951 37.1343 42.4937 35.9102C43.7923 34.6861 44.4432 32.9774 44.4463 30.784V27.028C43.5875 28.2145 42.4725 29.1924 41.1842 29.8893C39.8908 30.5683 38.4508 30.9203 36.9901 30.9145C35.5991 30.9525 34.2165 30.687 32.9385 30.1365C31.6606 29.586 30.5178 28.7638 29.5897 27.727C27.6263 25.6082 26.6445 22.9332 26.6445 19.7022ZM30.135 19.7022C30.135 22.0602 30.7998 23.9895 32.1295 25.4901C32.779 26.2201 33.5812 26.7981 34.4793 27.1831C35.3773 27.5681 36.3491 27.7506 37.3256 27.7177C38.2982 27.7506 39.2658 27.5656 40.1577 27.1761C41.0495 26.7867 41.8429 26.2026 42.4797 25.4668C43.7815 23.9942 44.4323 22.0727 44.4323 19.7022C44.4323 17.3317 43.7815 15.3947 42.4797 13.891C41.842 13.1569 41.0482 12.5746 40.1564 12.1868C39.2646 11.7989 38.2975 11.6154 37.3256 11.6495C36.3512 11.6165 35.3816 11.8005 34.487 12.1882C33.5924 12.5759 32.7951 13.1575 32.1528 13.891C30.7904 15.5151 30.0723 17.5833 30.135 19.7022Z"
          fill="#F8F7F3"
        />
        <path
          d="M54.6586 30.798H51.3359V8.77879H54.598V11.6494C55.2176 10.6801 56.0678 9.87954 57.0726 9.31937C58.1192 8.73185 59.3024 8.43123 60.5025 8.44792C61.836 8.42272 63.151 8.76275 64.3051 9.43121C65.4444 10.1054 66.3502 11.112 66.9008 12.3158C67.5554 11.1487 68.5011 10.171 69.6457 9.47781C71.0897 8.64076 72.7649 8.29077 74.4233 8.4796C76.0817 8.66844 77.6352 9.38608 78.8541 10.5263C80.2677 11.9679 80.9745 14.0712 80.9745 16.8362V30.8166H77.6285V17.0133C77.6285 15.2797 77.2044 13.9624 76.3563 13.0615C75.9233 12.6051 75.3969 12.2476 74.8129 12.0135C74.229 11.7795 73.6014 11.6743 72.973 11.7054C72.2881 11.681 71.6053 11.7943 70.965 12.0384C70.3246 12.2826 69.7398 12.6526 69.2449 13.1267C68.2756 14.0587 67.7909 15.3978 67.7909 17.1438V30.798H64.4915V17.0133C64.4915 15.2797 64.069 13.9624 63.224 13.0615C62.7928 12.6066 62.2686 12.2501 61.6872 12.0161C61.1058 11.782 60.4808 11.6761 59.8547 11.7054C59.1608 11.6841 58.4702 11.8093 57.8279 12.0726C57.1855 12.336 56.6059 12.7317 56.1266 13.2339C55.1448 14.2405 54.6524 15.6525 54.6493 17.47L54.6586 30.798Z"
          fill="#F8F7F3"
        />
        <path
          d="M81.0195 11.837V8.7799H84.6544V4.88867H88.0004V8.7799H95.8388V11.837H88.0004V24.0046C88.0004 25.3623 88.2987 26.3595 88.8952 26.9964C89.4917 27.6333 90.4128 27.944 91.6587 27.9285C92.764 27.8745 93.8497 27.6153 94.8602 27.1642L95.6291 30.0675C94.2325 30.7382 92.7089 31.1036 91.16 31.1393C89.094 31.1393 87.494 30.563 86.3601 29.4104C85.2261 28.2578 84.6576 26.6423 84.6544 24.5638V11.837H81.0195Z"
          fill="#F8F7F3"
        />
      </g>
      <defs>
        <clipPath id="clip0_6215_12102">
          <rect width="95.8406" height="41" fill="white" />
        </clipPath>
      </defs>
    </svg>