<svg width="74" height="32" viewBox="0 0 74 32" fill="none" xmlns="http://www.w3.org/2000/svg">
    <g clip-path="url(#clip0_5857_92)">
        <path fill-rule="evenodd" clip-rule="evenodd"
            d="M3.90259 19.4717C4.68084 19.6478 5.4951 19.5687 6.22489 19.2461C6.95468 18.9234 7.56121 18.3744 7.95473 17.6803L11.7847 10.9805C12.1435 11.0652 12.4876 11.2029 12.8058 11.3889C13.6606 11.8889 14.2833 12.7063 14.5383 13.6632C14.7933 14.6201 14.66 15.6389 14.1673 16.498L7.24892 28.5827C7.00707 29.0071 6.6836 29.3795 6.29716 29.6782C5.91072 29.977 5.46895 30.1964 4.99733 30.3236C4.52572 30.4508 4.03358 30.4834 3.5493 30.4195C3.06502 30.3557 2.59817 30.1965 2.17569 29.9514C1.32196 29.4494 0.700583 28.6312 0.446373 27.674C0.192162 26.7169 0.325626 25.6981 0.817807 24.8387L3.90259 19.4717Z"
            fill="#B7B7DB" />
        <path
            d="M13.5081 0.50194C13.0856 0.256756 12.6188 0.097633 12.1345 0.0337449C11.6502 -0.0301432 11.1581 0.00246794 10.6865 0.129698C10.2149 0.256928 9.7731 0.47626 9.38666 0.775046C9.00021 1.07383 8.67674 1.44616 8.43489 1.87057L1.50935 13.9732C1.0167 14.8323 0.883348 15.8512 1.13834 16.808C1.39333 17.7649 2.01601 18.5823 2.87082 19.0823C3.1923 19.2628 3.53885 19.3944 3.89908 19.4728L7.73625 12.7587C8.12977 12.0645 8.7363 11.5155 9.46609 11.1929C10.1959 10.8703 11.0101 10.7912 11.7884 10.9673L14.866 5.59309C15.3515 4.7357 15.4812 3.72208 15.2273 2.77008C14.9734 1.81808 14.3561 1.00369 13.5081 0.50194Z"
            fill="#BDDBC7" />
        <path
            d="M20.8066 15.148C20.8066 12.652 21.5519 10.5859 23.0423 8.94977C23.7527 8.14767 24.6303 7.51098 25.6133 7.0845C26.5962 6.65802 27.6607 6.4521 28.7318 6.48123C29.8671 6.46942 30.9876 6.7403 31.9921 7.26944C32.9943 7.80424 33.8541 8.57074 34.5001 9.5051V6.74994H37.0582V23.5102C37.0582 25.9179 36.3285 27.855 34.8691 29.3215C33.4097 30.7881 31.4702 31.5238 29.0506 31.5285C26.9296 31.5285 25.1884 30.9971 23.8269 29.9342C23.1742 29.4392 22.628 28.8175 22.2211 28.1065C21.8142 27.3955 21.5549 26.6096 21.4587 25.7961L24.0777 25.2766C24.2286 26.3513 24.7897 27.3258 25.6434 27.9959C26.5081 28.679 27.6438 29.0206 29.0506 29.0206C30.6796 29.0206 31.9933 28.55 32.9917 27.609C33.9901 26.6679 34.4905 25.3542 34.4929 23.6679V20.7802C33.8326 21.6924 32.9754 22.4442 31.985 22.98C30.9906 23.502 29.8835 23.7726 28.7604 23.7682C27.691 23.7974 26.6281 23.5933 25.6456 23.17C24.663 22.7468 23.7845 22.1147 23.071 21.3176C21.5614 19.6886 20.8066 17.6321 20.8066 15.148ZM23.4902 15.148C23.4902 16.9609 24.0013 18.4442 25.0236 19.5978C25.5229 20.1591 26.1397 20.6034 26.8301 20.8994C27.5205 21.1954 28.2676 21.3357 29.0184 21.3104C29.7661 21.3357 30.5101 21.1935 31.1957 20.8941C31.8814 20.5946 32.4913 20.1456 32.981 19.5799C33.9818 18.4478 34.4822 16.9704 34.4822 15.148C34.4822 13.3256 33.9818 11.8363 32.981 10.6803C32.4907 10.1159 31.8804 9.66819 31.1948 9.37002C30.5092 9.07185 29.7656 8.93071 29.0184 8.95694C28.2692 8.93161 27.5238 9.07309 26.836 9.37113C26.1483 9.66917 25.5353 10.1163 25.0415 10.6803C23.9941 11.9289 23.442 13.5189 23.4902 15.148Z"
            fill="#202020" />
        <path
            d="M42.3416 23.6795H39.7871V6.75082H42.2951V8.95782C42.7714 8.21259 43.425 7.59709 44.1975 7.16642C45.0022 6.71473 45.9118 6.48361 46.8345 6.49644C47.8597 6.47707 48.8707 6.73849 49.758 7.25241C50.6339 7.77071 51.3303 8.5446 51.7536 9.47016C52.2569 8.57286 52.9839 7.82116 53.8639 7.28824C54.9741 6.6447 56.262 6.37562 57.537 6.5208C58.812 6.66598 60.0064 7.21771 60.9435 8.09436C62.0303 9.20264 62.5737 10.8197 62.5737 12.9455V23.6938H60.0012V13.0816C60.0012 11.7488 59.6752 10.7361 59.0231 10.0434C58.6903 9.6925 58.2855 9.41767 57.8366 9.23773C57.3876 9.05778 56.9051 8.97696 56.422 9.00081C55.8955 8.98212 55.3705 9.06919 54.8782 9.25688C54.3859 9.44458 53.9362 9.72908 53.5558 10.0936C52.8106 10.8101 52.4379 11.8396 52.4379 13.1819V23.6795H49.9013V13.0816C49.9013 11.7488 49.5765 10.7361 48.9268 10.0434C48.5953 9.69372 48.1923 9.41959 47.7453 9.23968C47.2983 9.05976 46.8178 8.97829 46.3365 9.00081C45.803 8.9845 45.272 9.08071 44.7782 9.28318C44.2844 9.48565 43.8387 9.78985 43.4702 10.176C42.7154 10.9499 42.3369 12.0354 42.3345 13.4327L42.3416 23.6795Z"
            fill="#202020" />
        <path
            d="M62.6074 9.09976V6.74944H65.402V3.75781H67.9744V6.74944H74.0007V9.09976H67.9744V18.4544C67.9744 19.4982 68.2037 20.2649 68.6623 20.7546C69.1209 21.2442 69.8291 21.4831 70.7869 21.4711C71.6367 21.4297 72.4714 21.2304 73.2483 20.8836L73.8395 23.1156C72.7657 23.6313 71.5944 23.9122 70.4036 23.9397C68.8152 23.9397 67.5851 23.4966 66.7133 22.6105C65.8415 21.7243 65.4044 20.4823 65.402 18.8844V9.09976H62.6074Z"
            fill="#202020" />
    </g>
    <defs>
        <clipPath id="clip0_5857_92">
            <rect width="74" height="32" fill="white" />
        </clipPath>
    </defs>
</svg>