<svg width="21" height="21" viewBox="0 0 21 21" fill="none" xmlns="http://www.w3.org/2000/svg">
<path d="M8.24891 4.98824e-08C9.81687 -0.000172339 11.3524 0.44648 12.6756 1.28763C13.9989 2.12878 15.055 3.3296 15.7203 4.74941C16.3856 6.16922 16.6326 7.74922 16.4322 9.30432C16.2318 10.8594 15.5924 12.3252 14.5889 13.53L20.2789 19.22C20.3776 19.3117 20.4498 19.4283 20.4878 19.5575C20.5258 19.6868 20.5283 19.8239 20.4949 19.9544C20.4615 20.0849 20.3936 20.204 20.2982 20.2992C20.2028 20.3943 20.0835 20.462 19.9529 20.495C19.8225 20.5284 19.6856 20.5261 19.5564 20.4882C19.4272 20.4504 19.3107 20.3785 19.2189 20.28L13.5289 14.59C12.5107 15.4378 11.3034 16.0278 10.0089 16.3103C8.71449 16.5928 7.37106 16.5594 6.09227 16.2128C4.81349 15.8663 3.63697 15.2169 2.66223 14.3195C1.6875 13.4222 0.943225 12.3033 0.492368 11.0574C0.041512 9.81159 -0.102664 8.4755 0.0720366 7.16216C0.246737 5.84883 0.735175 4.59688 1.49603 3.51224C2.25689 2.42759 3.26779 1.54214 4.44321 0.930789C5.61864 0.31944 6.92401 0.000174971 8.24891 4.98824e-08ZM1.49891 8.25C1.49891 9.13642 1.67351 10.0142 2.01273 10.8331C2.35194 11.6521 2.84915 12.3962 3.47594 13.023C4.10274 13.6498 4.84685 14.147 5.6658 14.4862C6.48475 14.8254 7.36249 15 8.24891 15C9.13534 15 10.0131 14.8254 10.832 14.4862C11.651 14.147 12.3951 13.6498 13.0219 13.023C13.6487 12.3962 14.1459 11.6521 14.4851 10.8331C14.8243 10.0142 14.9989 9.13642 14.9989 8.25C14.9989 6.45979 14.2878 4.7429 13.0219 3.47703C11.756 2.21116 10.0391 1.5 8.24891 1.5C6.4587 1.5 4.74181 2.21116 3.47594 3.47703C2.21007 4.7429 1.49891 6.45979 1.49891 8.25Z" fill="#7A7687"/>
</svg>
