<svg width="20" height="22" viewBox="0 0 20 22" fill="none" xmlns="http://www.w3.org/2000/svg">
<path d="M14.8658 12.25C14.4516 12.25 14.1158 12.5858 14.1158 13C14.1158 13.4142 14.4516 13.75 14.8658 13.75V12.25ZM15.2083 13L15.2086 12.25H15.2083V13ZM18.1045 15.628L17.36 15.7185L17.36 15.7187L18.1045 15.628ZM18.485 18.752L19.2295 18.6615L19.2295 18.6613L18.485 18.752ZM16.5533 21L16.5534 20.25H16.5533V21ZM3.44674 21V20.25H3.44658L3.44674 21ZM1.51502 18.752L2.25954 18.8425L2.25955 18.8425L1.51502 18.752ZM1.89455 15.628L1.15004 15.5375L1.15003 15.5375L1.89455 15.628ZM4.79262 13L4.79233 13.75H4.79262V13ZM5.1342 13.75C5.54842 13.75 5.8842 13.4142 5.8842 13C5.8842 12.5858 5.54842 12.25 5.1342 12.25V13.75ZM14.7486 6C14.7486 8.34721 12.8458 10.25 10.4986 10.25V11.75C13.6743 11.75 16.2486 9.17564 16.2486 6H14.7486ZM10.4986 10.25C8.15143 10.25 6.24864 8.34721 6.24864 6H4.74864C4.74864 9.17564 7.323 11.75 10.4986 11.75V10.25ZM6.24864 6C6.24864 3.65279 8.15143 1.75 10.4986 1.75V0.25C7.323 0.25 4.74864 2.82436 4.74864 6H6.24864ZM10.4986 1.75C12.8458 1.75 14.7486 3.65279 14.7486 6H16.2486C16.2486 2.82436 13.6743 0.25 10.4986 0.25V1.75ZM14.8658 13.75H15.2083V12.25H14.8658V13.75ZM15.2081 13.75C15.7308 13.7502 16.2388 13.9463 16.636 14.3067L17.644 13.1959C16.9746 12.5885 16.1088 12.2503 15.2086 12.25L15.2081 13.75ZM16.636 14.3067C17.0337 14.6676 17.2931 15.169 17.36 15.7185L18.849 15.5375C18.7394 14.6361 18.3128 13.8028 17.644 13.1959L16.636 14.3067ZM17.36 15.7187L17.7405 18.8427L19.2295 18.6613L18.849 15.5373L17.36 15.7187ZM17.7405 18.8425C17.7622 19.0213 17.7466 19.2027 17.6951 19.3743L19.1316 19.806C19.2429 19.4356 19.2762 19.0455 19.2295 18.6615L17.7405 18.8425ZM17.6951 19.3743C17.6435 19.5458 17.5575 19.7027 17.4438 19.835L18.5815 20.8126C18.8332 20.5197 19.0203 20.1764 19.1316 19.806L17.6951 19.3743ZM17.4438 19.835C17.3302 19.9672 17.1917 20.0717 17.0384 20.1427L17.669 21.5037C18.019 21.3416 18.3297 21.1056 18.5815 20.8126L17.4438 19.835ZM17.0384 20.1427C16.8852 20.2137 16.7199 20.25 16.5534 20.25L16.5531 21.75C16.9386 21.7501 17.3191 21.6659 17.669 21.5037L17.0384 20.1427ZM16.5533 20.25H3.44674V21.75H16.5533V20.25ZM3.44658 20.25C3.28006 20.25 3.11481 20.2137 2.96158 20.1427L2.33096 21.5037C2.68094 21.6659 3.06142 21.7501 3.44691 21.75L3.44658 20.25ZM2.96158 20.1427C2.80828 20.0717 2.66983 19.9672 2.5562 19.835L1.41854 20.8126C1.67028 21.1056 1.98103 21.3416 2.33096 21.5037L2.96158 20.1427ZM2.5562 19.835C2.44253 19.7027 2.35647 19.5458 2.30492 19.3743L0.868382 19.806C0.979705 20.1764 1.16684 20.5197 1.41854 20.8126L2.5562 19.835ZM2.30492 19.3743C2.25336 19.2027 2.23779 19.0213 2.25954 18.8425L0.770507 18.6615C0.723799 19.0455 0.75707 19.4356 0.868382 19.806L2.30492 19.3743ZM2.25955 18.8425L2.63908 15.7185L1.15003 15.5375L0.770496 18.6615L2.25955 18.8425ZM2.63907 15.7185C2.70593 15.1688 2.96554 14.6671 3.36357 14.3062L2.35595 13.195C1.6866 13.802 1.2597 14.6357 1.15004 15.5375L2.63907 15.7185ZM3.36357 14.3062C3.76108 13.9457 4.26938 13.7498 4.79233 13.75L4.79292 12.25C3.89228 12.2496 3.02584 12.5876 2.35595 13.195L3.36357 14.3062ZM4.79262 13.75H5.1342V12.25H4.79262V13.75Z" fill="#202020"/>
</svg>
